<svg xmlns="http://www.w3.org/2000/svg" viewBox="0 0 512 512" fill="none" stroke="#6366F1" stroke-width="20" stroke-linecap="round" stroke-linejoin="round">
  <path d="M256 256c46.9-46.9 84.9-84.9 84.9-169.8 0-23.4-19.1-42.5-42.5-42.5-42.5 0-42.5 19.1-42.5 42.5 0 84.9-38 122.9-84.9 169.8Z"/>
  <path d="M256 256c-46.9 46.9-84.9 84.9-84.9 169.8 0 23.4 19.1 42.5 42.5 42.5 42.5 0-42.5-19.1-42.5-42.5 0-84.9 38-122.9 84.9-169.8Z"/>
  <path d="M169.8 342.2c-46.9-46.9-84.9-84.9-84.9-169.8 0-23.4 19.1-42.5 42.5-42.5 42.5 0-42.5 19.1-42.5 42.5 0 84.9-38 122.9-84.9 169.8Z"/>
  <path d="M342.2 169.8c46.9 46.9 84.9 84.9 84.9 169.8 0 23.4-19.1 42.5-42.5 42.5-42.5 0-42.5-19.1-42.5-42.5 0-84.9-38-122.9-84.9-169.8Z"/>
</svg>